<svg xmlns="http://www.w3.org/2000/svg" viewBox="0 0 34 42.5" x="0px" y="0px"><path d="M25.206 14.5V11c0-1.1-.9-2-2-2h-4.18c-.42-1.16-1.52-2-2.82-2-1.3 0-2.4.84-2.82 2h-4.18c-1.1 0-2 .9-2 2v14c0 1.1.9 2 2 2h14c1.1 0 2-.9 2-2v-3.5" fill="none" stroke="#000"/><path d="M16.206 9c.55 0 1 .45 1 1s-.45 1-1 1-1-.45-1-1 .45-1 1-1z" fill="none" stroke="#000"/><path d="M19.206 23h-10v-2h10zM16.206 19h-7v-2h7zM19.206 15h-10v-2h10zM27.294 19.991h-4v3l-5-5 5-5v3h4z"/><text x="0" y="49" fill="#000000" font-size="5px" font-weight="bold" font-family="'Helvetica Neue', Helvetica, Arial-Unicode, Arial, Sans-serif">Created by Andrew </text><text x="0" y="54" fill="#000000" font-size="5px" font-weight="bold" font-family="'Helvetica Neue', Helvetica, Arial-Unicode, Arial, Sans-serif">from the Noun Project</text></svg>