<svg xmlns="http://www.w3.org/2000/svg" xmlns:xlink="http://www.w3.org/1999/xlink" version="1.1" x="0px" y="0px" viewBox="-5.0 -10.0 110.0 135.0" enable-background="new 0 0 100 100" xml:space="preserve"><path d="M84.059,22.121c-2.652-4.127-4.127-9.434-7.075-10.908c-2.947-1.474-12.087-4.717-14.739-5.307  C59.59,5.317,50.451,7.97,48.093,8.854c-2.358,0.884-6.485,7.665-8.845,12.971c-2.358,5.307-24.173,39.43-24.763,44.184  c-0.59,4.753-1.474,7.702,1.769,10.944c3.244,3.243,10.644,8.309,16.803,10.907c15.693,6.621,21.227,7.961,23.29,7.961  s7.665-1.549,8.844-5.934c1.18-4.386,16.805-46.837,18.867-51.849C86.122,33.029,86.712,26.248,84.059,22.121z M44.26,84.041  c-8.311,0-15.046-6.735-15.046-15.046c0-8.312,6.735-15.048,15.046-15.048c8.311,0,15.047,6.736,15.047,15.048  C59.308,77.306,52.571,84.041,44.26,84.041z M74.036,35.977c-1.18,1.769-6.191,14.445-7.371,16.118  c-1.179,1.674-2.946,0.686-5.011,0C59.59,51.41,46.619,46,44.26,44.525c-2.358-1.474-2.652-4.422-2.063-5.306  s4.127-9.434,5.896-13.266c1.769-3.833,5.872-2.273,6.78-2.064c2.132,0.492,15.92,6.486,17.394,7.076  C73.742,31.554,75.215,34.208,74.036,35.977z"/><text x="0.0" y="117.5" font-size="5.0" font-weight="bold" font-family="Arbeit Regular, Helvetica, Arial-Unicode, Arial, Sans-serif" fill="#000000">Created by Chamaquito pan de dulce</text><text x="0.0" y="122.5" font-size="5.0" font-weight="bold" font-family="Arbeit Regular, Helvetica, Arial-Unicode, Arial, Sans-serif" fill="#000000">from Noun Project</text></svg>