<svg xmlns="http://www.w3.org/2000/svg" xmlns:xlink="http://www.w3.org/1999/xlink" version="1.1" x="0px" y="0px" viewBox="0 0 100 125" enable-background="new 0 0 100 100" xml:space="preserve"><path d="M50,5C25.1,5,5,25.1,5,50s20.1,45,45,45c24.9,0,45-20.1,45-45S74.9,5,50,5z M50,20.5c5.3,0,10.4,1.4,14.7,3.9L24.4,64.7  c-2.5-4.3-3.9-9.3-3.9-14.7C20.5,33.7,33.7,20.5,50,20.5z M50,79.5c-5.3,0-10.4-1.4-14.7-3.9l40.3-40.3c2.5,4.3,3.9,9.3,3.9,14.7  C79.5,66.3,66.3,79.5,50,79.5z"/><text x="0" y="115" fill="#000000" font-size="5px" font-weight="bold" font-family="'Helvetica Neue', Helvetica, Arial-Unicode, Arial, Sans-serif">Created by Konstantinos Riginos</text><text x="0" y="120" fill="#000000" font-size="5px" font-weight="bold" font-family="'Helvetica Neue', Helvetica, Arial-Unicode, Arial, Sans-serif">from the Noun Project</text></svg>